name Walk3.mot
datacolumns 19
datarows 12
range 1.93000000 1.98500000
endheader

                time	   L_ground_force_vx	   L_ground_force_vy	   L_ground_force_vz	   L_ground_force_px	   L_ground_force_py	   L_ground_force_pz	   R_ground_force_vx	   R_ground_force_vy	   R_ground_force_vz	   R_ground_force_px	   R_ground_force_py	   R_ground_force_pz	   L_ground_torque_x	   L_ground_torque_y	   L_ground_torque_z	   R_ground_torque_x	   R_ground_torque_y	   R_ground_torque_z	
          1.93000000	          0.17376471	          0.34218214	         -0.00227687	          0.00092891	          0.00000000	          0.00024482	        -17.59778302	        700.97104179	        -46.32254123	          0.16801297	          0.00000000	          0.08857459	          0.00000000	          0.00007023	          0.00000000	          0.00000000	          8.50967722	          0.00000000	
          1.93500000	          0.16508301	          0.39112907	         -0.00635175	          0.00051172	          0.00000000	          0.00014365	        -15.13785033	        689.93481415	        -46.25653350	          0.17028476	          0.00000000	          0.08889296	          0.00000000	          0.00011209	          0.00000000	          0.00000000	          8.26846699	          0.00000000	
          1.94000000	          0.14645954	          0.39158420	         -0.00846254	          0.00020371	          0.00000000	          0.00006742	        -12.79167667	        679.93498601	        -46.19240605	          0.17246428	          0.00000000	          0.08918423	          0.00000000	          0.00013007	          0.00000000	          0.00000000	          8.00947121	          0.00000000	
          1.94500000	          0.12293348	          0.36090650	         -0.00914686	         -0.00000992	          0.00000000	          0.00001320	        -10.55670126	        671.06767652	        -46.12765557	          0.17454692	          0.00000000	          0.08944126	          0.00000000	          0.00013132	          0.00000000	          0.00000000	          7.73156587	          0.00000000	
          1.95000000	          0.09812413	          0.31269014	         -0.00886230	         -0.00014613	          0.00000000	         -0.00002262	         -8.42924623	        663.38057860	        -46.06136786	          0.17653068	          0.00000000	          0.08965758	          0.00000000	          0.00012173	          0.00000000	          0.00000000	          7.43363530	          0.00000000	
          1.95500000	          0.07445394	          0.25703991	         -0.00797892	         -0.00022192	          0.00000000	         -0.00004380	         -6.40517460	        656.87975835	        -45.99273049	          0.17841431	          0.00000000	          0.08982758	          0.00000000	          0.00010595	          0.00000000	          0.00000000	          7.11499156	          0.00000000	
          1.96000000	          0.05338630	          0.20102375	         -0.00678138	         -0.00025298	          0.00000000	         -0.00005391	         -4.47995040	        651.53918230	        -45.92013879	          0.18019773	          0.00000000	          0.08994621	          0.00000000	          0.00008746	          0.00000000	          0.00000000	          6.77567980	          0.00000000	
          1.96500000	          0.03565382	          0.14920313	         -0.00547710	         -0.00025288	          0.00000000	         -0.00005614	         -2.64797217	        647.30950565	        -45.84007992	          0.18188390	          0.00000000	          0.09000914	          0.00000000	          0.00006868	          0.00000000	          0.00000000	          6.41656937	          0.00000000	
          1.97000000	          0.02146254	          0.10417140	         -0.00420752	         -0.00023282	          0.00000000	         -0.00005312	         -0.90186221	        644.12863557	        -45.74450103	          0.18347657	          0.00000000	          0.09001256	          0.00000000	          0.00005121	          0.00000000	          0.00000000	          6.03913479	          0.00000000	
          1.97500000	          0.01066451	          0.06705473	         -0.00306060	         -0.00020155	          0.00000000	         -0.00004699	          0.76719191	        641.93280252	        -45.61956704	          0.18497985	          0.00000000	          0.08995348	          0.00000000	          0.00003595	          0.00000000	          0.00000000	          5.64566359	          0.00000000	
          1.98000000	          0.00289652	          0.03794930	         -0.00208304	         -0.00016555	          0.00000000	         -0.00003934	          2.36832774	        640.66639504	        -45.44973623	          0.18640122	          0.00000000	          0.08983142	          0.00000000	          0.00002332	          0.00000000	          0.00000000	          5.23919187	          0.00000000	
          1.98500000	         -0.00231403	          0.01628323	         -0.00129141	         -0.00012937	          0.00000000	         -0.00003132	          3.91252536	        640.28644697	        -45.22302570	          0.18775098	          0.00000000	          0.08964894	          0.00000000	          0.00001338	          0.00000000	          0.00000000	          4.82268526	          0.00000000	
